<?xml version="1.0" encoding="UTF-8" standalone="no"?>
<!-- Created with Inkscape (http://www.inkscape.org/) -->

<svg
   width="108.13466mm"
   height="108.13466mm"
   viewBox="0 0 108.13466 108.13466"
   version="1.1"
   id="svg2324"
   xmlns="http://www.w3.org/2000/svg"
   xmlns:svg="http://www.w3.org/2000/svg">
  <defs
     id="defs2321" />
  <g
     id="layer1"
     transform="translate(-50.932671,-94.432671)">
    <path
       id="rect19295"
       style="display:inline;fill:#feda03;stroke-width:0.264583"
       d="m 65.932671,94.432671 h 78.134659 c 8.31,0 15,6.689999 15,14.999999 v 78.13466 c 0,8.31 -6.69,15 -15,15 H 65.932671 c -8.31,0 -15,-6.69 -15,-15 v -78.13466 c 0,-8.31 6.69,-14.999999 15,-14.999999 z" />
    <g
       aria-label="C"
       id="text4189-0"
       style="font-size:10.5833px;line-height:1.25;display:inline;stroke-width:0.264583">
      <path
         d="m 106.48828,171.59161 h 14.09216 q 1.62781,0 2.79053,1.16272 1.20923,1.11621 1.20923,2.74402 0,1.62781 -1.20923,2.79053 -1.16272,1.11621 -2.79053,1.11621 h -14.60376 q -2.79052,0 -5.76709,-1.76733 -2.976558,-1.76734 -4.139278,-3.95325 l -9.022705,-17.4408 q -1.813842,-3.76721 -1.813842,-7.72046 0,-4.37182 1.720825,-7.58093 l 9.115722,-17.25476 q 1.302247,-2.41846 4.046268,-4.2323 2.74402,-1.86035 5.302,-1.86035 h 15.44092 q 1.6278,0 2.74402,1.16272 1.16272,1.16272 1.16272,2.74402 0,1.62781 -1.16272,2.83703 -1.11622,1.16272 -2.74402,1.16272 h -14.88282 q -1.86035,0 -3.02307,2.18592 l -8.650631,16.18506 q -1.023194,1.90686 -1.023194,4.51135 0,2.74402 1.116211,4.83691 l 8.278564,15.90601 q 1.16272,2.46496 3.81372,2.46496 z"
         style="font-size:95.25px;font-family:'OCR A Extended';-inkscape-font-specification:'OCR A Extended, Normal'"
         id="path852" />
    </g>
  </g>
</svg>
